<svg xmlns="http://www.w3.org/2000/svg" width="920" height="240" viewBox="0 0 920 240" role="img" aria-label="Model strict accuracy chart">
<style>text{font-family: ui-sans-serif, system-ui, -apple-system, Segoe UI, Arial, sans-serif;}.title{font-size:18px;font-weight:600;fill:#0f172a;}.subtitle{font-size:12px;fill:#475569;}.label{font-size:12px;fill:#0f172a;}.value{font-size:12px;fill:#0f172a;}.grid{stroke:#e2e8f0;stroke-width:1;}</style>
<rect x="0" y="0" width="920" height="240" fill="#ffffff" />
<text x="200" y="26" class="title">Best strict accuracy by model (all runs)</text>
<text x="200" y="44" class="subtitle">Reference baseline hidden</text>
<line x1="200.0" y1="48" x2="200.0" y2="212" class="grid" />
<text x="200.0" y="42" class="subtitle" text-anchor="middle">0.0%</text>
<line x1="336.0" y1="48" x2="336.0" y2="212" class="grid" />
<text x="336.0" y="42" class="subtitle" text-anchor="middle">20.0%</text>
<line x1="472.0" y1="48" x2="472.0" y2="212" class="grid" />
<text x="472.0" y="42" class="subtitle" text-anchor="middle">40.0%</text>
<line x1="608.0" y1="48" x2="608.0" y2="212" class="grid" />
<text x="608.0" y="42" class="subtitle" text-anchor="middle">60.0%</text>
<line x1="744.0" y1="48" x2="744.0" y2="212" class="grid" />
<text x="744.0" y="42" class="subtitle" text-anchor="middle">80.0%</text>
<line x1="880.0" y1="48" x2="880.0" y2="212" class="grid" />
<text x="880.0" y="42" class="subtitle" text-anchor="middle">100.0%</text>
<text x="190" y="72" class="label" text-anchor="end">gpt-oss</text>
<rect x="200" y="56" width="680.0" height="22" rx="6" fill="#16a34a" />
<text x="888.0" y="72" class="value">80.0%</text>
<text x="190" y="104" class="label" text-anchor="end">qwen3</text>
<rect x="200" y="88" width="340.0" height="22" rx="6" fill="#16a34a" />
<text x="548.0" y="104" class="value">40.0%</text>
<text x="190" y="136" class="label" text-anchor="end">llama3.2</text>
<rect x="200" y="120" width="255.0" height="22" rx="6" fill="#16a34a" />
<text x="463.0" y="136" class="value">30.0%</text>
<text x="190" y="168" class="label" text-anchor="end">gemma3:4b</text>
<rect x="200" y="152" width="255.0" height="22" rx="6" fill="#16a34a" />
<text x="463.0" y="168" class="value">30.0%</text>
<text x="190" y="200" class="label" text-anchor="end">deepseek-r1:8b</text>
<rect x="200" y="184" width="170.0" height="22" rx="6" fill="#16a34a" />
<text x="378.0" y="200" class="value">20.0%</text>
</svg>